<?xml version="1.0" standalone="no"?>
<!DOCTYPE svg PUBLIC "-//W3C//DTD SVG 20010904//EN"
 "http://www.w3.org/TR/2001/REC-SVG-20010904/DTD/svg10.dtd">
<svg version="1.0" xmlns="http://www.w3.org/2000/svg"
 width="512.000000pt" height="512.000000pt" viewBox="0 0 512.000000 512.000000"
 preserveAspectRatio="xMidYMid meet">
<metadata>
Created by potrace 1.14, written by Peter Selinger 2001-2017
</metadata>
<g transform="translate(0.000000,512.000000) scale(0.100000,-0.100000)"
fill="#000000" stroke="none">
<path d="M1945 4716 c-116 -28 -221 -106 -283 -208 -39 -65 -54 -137 -77 -363
-8 -88 -21 -206 -27 -263 l-11 -103 -54 -36 c-86 -57 -143 -138 -177 -252 -14
-48 -16 -155 -16 -937 0 -855 1 -884 20 -947 29 -94 89 -178 166 -233 35 -25
64 -46 64 -47 0 -1 7 -65 15 -142 8 -77 21 -207 30 -290 9 -82 20 -168 26
-190 29 -108 119 -220 217 -269 109 -55 120 -56 724 -56 371 0 575 4 610 11
150 32 283 146 333 289 8 24 24 129 35 234 11 105 25 242 31 303 l12 113 48
31 c87 56 158 153 185 251 20 76 21 1808 0 1883 -27 103 -95 197 -184 253
l-48 31 -17 173 c-48 470 -44 448 -82 524 -39 81 -111 158 -183 197 -103 56
-116 57 -737 56 -413 0 -584 -4 -620 -13z m1207 -238 c55 -16 112 -74 126
-129 7 -24 21 -134 32 -244 11 -110 23 -217 26 -237 l6 -38 -776 0 -775 0 4
28 c3 15 16 132 30 260 14 131 32 245 39 260 8 15 27 39 43 54 61 58 49 57
652 58 397 0 565 -3 593 -12z m324 -912 c54 -25 94 -69 113 -125 8 -24 11
-277 11 -891 l0 -856 -27 -55 c-21 -40 -40 -61 -77 -84 l-49 -30 -859 -3
c-590 -2 -872 1 -899 8 -22 6 -58 27 -80 47 -80 72 -74 -2 -77 943 -2 465 0
864 3 886 11 75 77 151 151 174 16 4 414 9 884 9 l855 1 51 -24z m-141 -2308
c-2 -13 -14 -120 -25 -238 -11 -118 -25 -232 -31 -253 -6 -21 -26 -56 -45 -77
-66 -73 -50 -71 -686 -68 l-566 3 -44 30 c-84 60 -90 85 -135 558 l-6 67 772
0 771 0 -5 -22z"/>
<path d="M1816 3309 l-26 -20 0 -294 c0 -292 0 -294 22 -309 19 -14 66 -16
313 -16 213 0 294 3 303 12 9 9 12 93 12 314 0 302 0 303 -22 318 -19 14 -65
16 -299 16 -264 0 -277 -1 -303 -21z m529 -314 l0 -230 -225 0 -225 0 -3 220
c-1 121 0 225 3 232 3 11 52 13 227 11 l223 -3 0 -230z"/>
<path d="M2040 2995 l0 -85 85 0 85 0 0 85 0 85 -85 0 -85 0 0 -85z"/>
<path d="M2635 3305 l-25 -24 0 -283 c0 -240 2 -287 16 -306 15 -22 17 -22
305 -22 181 0 298 4 310 10 18 10 19 24 19 315 0 303 0 304 -22 319 -19 14
-65 16 -301 16 l-278 0 -24 -25z m530 -310 l0 -230 -225 0 -225 0 -3 220 c-1
121 0 225 3 232 3 11 52 13 227 11 l223 -3 0 -230z"/>
<path d="M2854 3067 c-3 -8 -4 -45 -2 -83 l3 -69 83 -3 82 -3 0 86 0 85 -80 0
c-58 0 -82 -4 -86 -13z"/>
<path d="M1807 2482 c-15 -16 -17 -53 -17 -307 0 -262 2 -289 18 -301 13 -10
84 -13 319 -14 289 0 303 1 313 19 13 25 14 560 0 595 l-10 26 -303 0 c-282 0
-305 -1 -320 -18z m543 -302 l0 -230 -230 0 -230 0 0 230 0 230 230 0 230 0 0
-230z"/>
<path d="M2040 2180 l0 -80 85 0 85 0 0 80 0 80 -85 0 -85 0 0 -80z"/>
<path d="M2620 2415 l0 -85 85 0 85 0 0 85 0 85 -85 0 -85 0 0 -85z"/>
<path d="M2980 2415 l0 -85 79 0 80 0 3 85 3 85 -82 0 -83 0 0 -85z"/>
<path d="M3230 2323 l-75 -4 3 -79 4 -80 84 0 85 0 -3 82 c-2 45 -7 82 -13 83
-5 0 -44 -1 -85 -2z"/>
<path d="M2800 2240 l0 -80 85 0 85 0 0 80 0 80 -85 0 -85 0 0 -80z"/>
<path d="M2620 2065 l0 -85 85 0 85 0 0 85 0 85 -85 0 -85 0 0 -85z"/>
<path d="M2980 1880 l0 -90 80 0 80 0 0 90 0 90 -80 0 -80 0 0 -90z"/>
</g>
</svg>
