<?xml version="1.0" standalone="no"?>
<!DOCTYPE svg PUBLIC "-//W3C//DTD SVG 20010904//EN"
 "http://www.w3.org/TR/2001/REC-SVG-20010904/DTD/svg10.dtd">
<svg version="1.0" xmlns="http://www.w3.org/2000/svg"
 width="512.000000pt" height="512.000000pt" viewBox="0 0 512.000000 512.000000"
 preserveAspectRatio="xMidYMid meet">
<metadata>
Created by potrace 1.14, written by Peter Selinger 2001-2017
</metadata>
<g transform="translate(0.000000,512.000000) scale(0.100000,-0.100000)"
fill="#000000" stroke="none">
<path d="M1900 4707 c-119 -40 -203 -117 -259 -238 -34 -70 -32 -57 -66 -384
-34 -328 -30 -308 -71 -330 -54 -29 -132 -119 -167 -192 l-32 -68 0 -940 0
-940 32 -68 c35 -74 113 -163 168 -193 20 -10 38 -28 40 -39 3 -11 16 -135 30
-275 14 -140 30 -277 35 -305 27 -132 127 -257 253 -316 l72 -34 630 0 c629 0
630 0 685 22 74 31 159 99 202 164 62 93 76 156 107 468 31 314 22 282 106
341 49 34 119 128 147 198 l23 57 0 920 0 920 -23 57 c-32 78 -99 165 -166
213 -31 22 -56 41 -56 44 0 35 -64 587 -71 616 -31 118 -129 232 -246 288
l-68 32 -620 2 c-619 3 -620 3 -685 -20z m1281 -240 c24 -13 57 -42 73 -65 27
-38 30 -52 52 -259 12 -120 25 -239 29 -265 l6 -48 -776 0 c-735 0 -776 1
-771 18 2 9 14 116 27 237 26 264 31 285 72 332 66 75 44 73 678 73 l566 0 44
-23z m292 -900 c44 -19 105 -89 112 -129 3 -18 4 -427 3 -910 l-3 -876 -31
-39 c-16 -21 -50 -48 -74 -61 l-44 -22 -868 0 c-761 0 -873 2 -906 15 -49 21
-81 52 -103 100 -18 38 -19 85 -19 910 0 825 1 872 19 910 20 44 50 74 96 98
27 14 127 16 908 17 714 0 884 -3 910 -13z m-137 -2315 c-3 -15 -15 -121 -26
-237 -24 -245 -30 -273 -73 -322 -66 -75 -45 -73 -672 -73 -523 0 -563 2 -601
19 -56 25 -101 83 -113 145 -12 57 -51 425 -51 471 l0 30 771 -3 771 -2 -6
-28z"/>
<path d="M1808 3309 c-16 -17 -18 -47 -18 -319 0 -286 1 -300 19 -310 12 -6
132 -10 320 -10 287 0 301 1 311 19 6 12 10 128 10 308 0 245 -2 292 -16 311
-15 22 -16 22 -312 21 -279 -1 -298 -2 -314 -20z m542 -314 l0 -225 -225 0
-224 0 -3 221 c-2 121 -1 223 1 225 2 2 105 4 228 4 l223 0 0 -225z"/>
<path d="M2030 2997 c0 -46 2 -86 4 -88 2 -2 43 -3 90 -1 l86 3 0 85 0 84 -90
0 -90 0 0 -83z"/>
<path d="M2626 3308 c-14 -19 -16 -67 -16 -318 0 -217 3 -299 12 -308 9 -9 93
-12 314 -12 302 0 303 0 318 22 14 19 16 65 16 304 0 269 -1 282 -21 308 l-20
26 -294 0 c-292 0 -294 0 -309 -22z m534 -313 l0 -225 -225 0 -225 0 0 225 0
225 225 0 225 0 0 -225z"/>
<path d="M2850 2995 l0 -85 90 0 90 0 0 85 0 85 -90 0 -90 0 0 -85z"/>
<path d="M1812 2494 c-22 -15 -22 -16 -22 -314 0 -298 0 -299 22 -314 19 -14
66 -16 314 -16 269 0 292 1 307 18 15 16 17 53 17 315 0 294 0 296 -22 311
-19 14 -66 16 -308 16 -242 0 -289 -2 -308 -16z m533 -314 l0 -225 -222 -3
-223 -2 0 223 c0 123 3 227 7 231 4 3 104 5 222 4 l216 -3 0 -225z"/>
<path d="M2034 2257 c-3 -8 -4 -47 -2 -88 l3 -74 88 -3 87 -3 0 91 0 90 -85 0
c-63 0 -87 -4 -91 -13z"/>
<path d="M2620 2420 l0 -90 85 0 85 0 0 -90 0 -90 -85 0 -85 0 0 -90 0 -90 85
0 85 0 0 90 0 90 90 0 90 0 0 90 0 90 90 0 90 0 0 -90 0 -90 90 0 90 0 0 90 0
90 -90 0 -90 0 0 90 0 91 -87 -3 -88 -3 -3 -87 -3 -88 -89 0 -90 0 0 90 0 90
-85 0 -85 0 0 -90z"/>
<path d="M2974 1971 c-2 -2 -4 -44 -4 -93 l0 -88 90 0 91 0 -3 91 -3 90 -83 2
c-46 1 -86 0 -88 -2z"/>
</g>
</svg>
